<svg width="26" height="26" viewBox="0 0 26 26" fill="none" xmlns="http://www.w3.org/2000/svg">
<rect width="26" height="26" fill="#F5F5F5"/>
<g id="Mechanical/Plumbing">
<g clip-path="url(#clip0_0_1)">
<rect x="-1171" y="-61" width="1512" height="4461" rx="15" fill="white"/>
<g id="Group 350">
<g id="Group 281">
<g id="Group 250">
<rect id="Rectangle 104" x="-1171" y="-61" width="1512" height="116" fill="#2F2F2F"/>
</g>
</g>
<g id="Group 318">
<g id="Group 246">
<circle id="Ellipse 10" cx="13" cy="13" r="12" stroke="white" stroke-width="2"/>
<path id="Vector" d="M6.7 7.14648H19.3C19.6866 7.14648 20 7.43257 20 7.78546V18.0091C20 18.362 19.6866 18.6481 19.3 18.6481H6.7C6.3134 18.6481 6 18.362 6 18.0091V7.78546C6 7.43257 6.3134 7.14648 6.7 7.14648ZM13.0424 12.6947L8.55305 9.2153L7.64695 10.1895L13.0512 14.3779L18.3581 10.1856L17.4419 9.21923L13.0424 12.6947Z" fill="#FDFDFD"/>
</g>
</g>
</g>
</g>
</g>
<defs>
<clipPath id="clip0_0_1">
<rect x="-1171" y="-61" width="1512" height="4461" rx="15" fill="white"/>
</clipPath>
</defs>
</svg>
